<mxfile host="app.diagrams.net" modified="2023-04-29T11:30:55.108Z" agent="5.0 (Windows NT 10.0; Win64; x64) AppleWebKit/537.36 (KHTML, like Gecko) Chrome/112.0.0.0 Safari/537.36" etag="l9lF1y62HI-dtQ_OUUnE" version="14.7.6" type="github">
  <diagram id="rgXGJKLDqk3VPdyQ6K0S" name="Page-1">
    <mxGraphModel dx="1231" dy="547" grid="1" gridSize="10" guides="1" tooltips="1" connect="1" arrows="1" fold="1" page="1" pageScale="1" pageWidth="827" pageHeight="1169" math="0" shadow="0">
      <root>
        <mxCell id="0" />
        <mxCell id="1" parent="0" />
        <mxCell id="GDlKmXdOxEGopHSuAZpT-6" style="edgeStyle=orthogonalEdgeStyle;rounded=0;orthogonalLoop=1;jettySize=auto;html=1;exitX=1;exitY=0.5;exitDx=0;exitDy=0;entryX=0;entryY=0.5;entryDx=0;entryDy=0;" parent="1" source="GDlKmXdOxEGopHSuAZpT-1" target="GDlKmXdOxEGopHSuAZpT-2" edge="1">
          <mxGeometry relative="1" as="geometry" />
        </mxCell>
        <mxCell id="GDlKmXdOxEGopHSuAZpT-1" value="Focus" style="rounded=0;whiteSpace=wrap;html=1;" parent="1" vertex="1">
          <mxGeometry x="80" y="90" width="50" height="30" as="geometry" />
        </mxCell>
        <mxCell id="GDlKmXdOxEGopHSuAZpT-11" style="edgeStyle=orthogonalEdgeStyle;rounded=0;orthogonalLoop=1;jettySize=auto;html=1;exitX=1;exitY=0.5;exitDx=0;exitDy=0;entryX=0;entryY=0.5;entryDx=0;entryDy=0;" parent="1" source="GDlKmXdOxEGopHSuAZpT-2" target="GDlKmXdOxEGopHSuAZpT-8" edge="1">
          <mxGeometry relative="1" as="geometry" />
        </mxCell>
        <mxCell id="GDlKmXdOxEGopHSuAZpT-2" value="&#xa;&#xa;&lt;span style=&quot;color: rgb(0, 0, 0); font-family: helvetica; font-size: 12px; font-style: normal; font-weight: 400; letter-spacing: normal; text-align: center; text-indent: 0px; text-transform: none; word-spacing: 0px; background-color: rgb(248, 249, 250); display: inline; float: none;&quot;&gt;Conv&lt;/span&gt;&#xa;&#xa;" style="rounded=0;whiteSpace=wrap;html=1;" parent="1" vertex="1">
          <mxGeometry x="140" y="90" width="50" height="30" as="geometry" />
        </mxCell>
        <mxCell id="GDlKmXdOxEGopHSuAZpT-12" style="edgeStyle=orthogonalEdgeStyle;rounded=0;orthogonalLoop=1;jettySize=auto;html=1;exitX=1;exitY=0.5;exitDx=0;exitDy=0;entryX=0;entryY=0.5;entryDx=0;entryDy=0;" parent="1" source="GDlKmXdOxEGopHSuAZpT-8" target="GDlKmXdOxEGopHSuAZpT-9" edge="1">
          <mxGeometry relative="1" as="geometry" />
        </mxCell>
        <mxCell id="GDlKmXdOxEGopHSuAZpT-8" value="C3" style="rounded=0;whiteSpace=wrap;html=1;" parent="1" vertex="1">
          <mxGeometry x="200" y="90" width="50" height="30" as="geometry" />
        </mxCell>
        <mxCell id="GDlKmXdOxEGopHSuAZpT-13" style="edgeStyle=orthogonalEdgeStyle;rounded=0;orthogonalLoop=1;jettySize=auto;html=1;exitX=1;exitY=0.5;exitDx=0;exitDy=0;entryX=0;entryY=0.5;entryDx=0;entryDy=0;" parent="1" source="GDlKmXdOxEGopHSuAZpT-9" target="GDlKmXdOxEGopHSuAZpT-10" edge="1">
          <mxGeometry relative="1" as="geometry" />
        </mxCell>
        <mxCell id="GDlKmXdOxEGopHSuAZpT-9" value="Conv" style="rounded=0;whiteSpace=wrap;html=1;" parent="1" vertex="1">
          <mxGeometry x="260" y="90" width="50" height="30" as="geometry" />
        </mxCell>
        <mxCell id="2KB3TgUeK2hknvhq2ADO-1" style="edgeStyle=orthogonalEdgeStyle;rounded=0;orthogonalLoop=1;jettySize=auto;html=1;exitX=1;exitY=0.5;exitDx=0;exitDy=0;entryX=0;entryY=0.5;entryDx=0;entryDy=0;" edge="1" parent="1" source="GDlKmXdOxEGopHSuAZpT-10" target="GDlKmXdOxEGopHSuAZpT-14">
          <mxGeometry relative="1" as="geometry" />
        </mxCell>
        <mxCell id="GDlKmXdOxEGopHSuAZpT-10" value="C3" style="rounded=0;whiteSpace=wrap;html=1;" parent="1" vertex="1">
          <mxGeometry x="320" y="90" width="50" height="30" as="geometry" />
        </mxCell>
        <mxCell id="2KB3TgUeK2hknvhq2ADO-3" style="edgeStyle=orthogonalEdgeStyle;rounded=0;orthogonalLoop=1;jettySize=auto;html=1;exitX=1;exitY=0.5;exitDx=0;exitDy=0;entryX=0;entryY=0.5;entryDx=0;entryDy=0;" edge="1" parent="1" source="GDlKmXdOxEGopHSuAZpT-14" target="2KB3TgUeK2hknvhq2ADO-2">
          <mxGeometry relative="1" as="geometry" />
        </mxCell>
        <mxCell id="GDlKmXdOxEGopHSuAZpT-14" value="Conv" style="rounded=0;whiteSpace=wrap;html=1;" parent="1" vertex="1">
          <mxGeometry x="380" y="90" width="50" height="30" as="geometry" />
        </mxCell>
        <mxCell id="2KB3TgUeK2hknvhq2ADO-5" style="edgeStyle=orthogonalEdgeStyle;rounded=0;orthogonalLoop=1;jettySize=auto;html=1;exitX=1;exitY=0.5;exitDx=0;exitDy=0;entryX=0;entryY=0.5;entryDx=0;entryDy=0;" edge="1" parent="1" source="2KB3TgUeK2hknvhq2ADO-2" target="2KB3TgUeK2hknvhq2ADO-4">
          <mxGeometry relative="1" as="geometry" />
        </mxCell>
        <mxCell id="2KB3TgUeK2hknvhq2ADO-2" value="C3" style="rounded=0;whiteSpace=wrap;html=1;" vertex="1" parent="1">
          <mxGeometry x="440" y="90" width="50" height="30" as="geometry" />
        </mxCell>
        <mxCell id="2KB3TgUeK2hknvhq2ADO-7" style="edgeStyle=orthogonalEdgeStyle;rounded=0;orthogonalLoop=1;jettySize=auto;html=1;exitX=1;exitY=0.5;exitDx=0;exitDy=0;entryX=0;entryY=0.5;entryDx=0;entryDy=0;" edge="1" parent="1" source="2KB3TgUeK2hknvhq2ADO-4" target="2KB3TgUeK2hknvhq2ADO-6">
          <mxGeometry relative="1" as="geometry" />
        </mxCell>
        <mxCell id="2KB3TgUeK2hknvhq2ADO-4" value="Conv" style="rounded=0;whiteSpace=wrap;html=1;" vertex="1" parent="1">
          <mxGeometry x="500" y="90" width="50" height="30" as="geometry" />
        </mxCell>
        <mxCell id="2KB3TgUeK2hknvhq2ADO-9" style="edgeStyle=orthogonalEdgeStyle;rounded=0;orthogonalLoop=1;jettySize=auto;html=1;exitX=1;exitY=0.5;exitDx=0;exitDy=0;entryX=0;entryY=0.5;entryDx=0;entryDy=0;" edge="1" parent="1" source="2KB3TgUeK2hknvhq2ADO-6" target="2KB3TgUeK2hknvhq2ADO-8">
          <mxGeometry relative="1" as="geometry" />
        </mxCell>
        <mxCell id="2KB3TgUeK2hknvhq2ADO-6" value="SPP" style="rounded=0;whiteSpace=wrap;html=1;" vertex="1" parent="1">
          <mxGeometry x="560" y="90" width="50" height="30" as="geometry" />
        </mxCell>
        <mxCell id="2KB3TgUeK2hknvhq2ADO-11" style="edgeStyle=orthogonalEdgeStyle;rounded=0;orthogonalLoop=1;jettySize=auto;html=1;exitX=0.5;exitY=1;exitDx=0;exitDy=0;entryX=0.5;entryY=0;entryDx=0;entryDy=0;" edge="1" parent="1" source="2KB3TgUeK2hknvhq2ADO-8" target="2KB3TgUeK2hknvhq2ADO-10">
          <mxGeometry relative="1" as="geometry" />
        </mxCell>
        <mxCell id="2KB3TgUeK2hknvhq2ADO-8" value="C3" style="rounded=0;whiteSpace=wrap;html=1;" vertex="1" parent="1">
          <mxGeometry x="620" y="90" width="50" height="30" as="geometry" />
        </mxCell>
        <mxCell id="2KB3TgUeK2hknvhq2ADO-13" style="edgeStyle=orthogonalEdgeStyle;rounded=0;orthogonalLoop=1;jettySize=auto;html=1;exitX=0.5;exitY=1;exitDx=0;exitDy=0;entryX=0.5;entryY=0;entryDx=0;entryDy=0;" edge="1" parent="1" source="2KB3TgUeK2hknvhq2ADO-10" target="2KB3TgUeK2hknvhq2ADO-12">
          <mxGeometry relative="1" as="geometry" />
        </mxCell>
        <mxCell id="2KB3TgUeK2hknvhq2ADO-10" value="Conv" style="rounded=0;whiteSpace=wrap;html=1;" vertex="1" parent="1">
          <mxGeometry x="620" y="140" width="50" height="30" as="geometry" />
        </mxCell>
        <mxCell id="2KB3TgUeK2hknvhq2ADO-17" style="edgeStyle=orthogonalEdgeStyle;rounded=0;orthogonalLoop=1;jettySize=auto;html=1;exitX=0.5;exitY=1;exitDx=0;exitDy=0;entryX=0.5;entryY=0;entryDx=0;entryDy=0;" edge="1" parent="1" source="2KB3TgUeK2hknvhq2ADO-12" target="2KB3TgUeK2hknvhq2ADO-14">
          <mxGeometry relative="1" as="geometry" />
        </mxCell>
        <mxCell id="2KB3TgUeK2hknvhq2ADO-12" value="Upsample" style="rounded=0;whiteSpace=wrap;html=1;" vertex="1" parent="1">
          <mxGeometry x="620" y="190" width="50" height="30" as="geometry" />
        </mxCell>
        <mxCell id="2KB3TgUeK2hknvhq2ADO-14" value="Concat" style="rounded=0;whiteSpace=wrap;html=1;" vertex="1" parent="1">
          <mxGeometry x="620" y="240" width="50" height="30" as="geometry" />
        </mxCell>
      </root>
    </mxGraphModel>
  </diagram>
</mxfile>
